# Blender 3.6.1
# www.blender.org
mtllib pistol2arm.mtl
o Cube.001
v 0.766631 -4.179191 8.099277
v 0.766631 -1.117127 8.099277
v 0.766631 -1.848687 8.099277
v 0.766631 -2.425602 8.099277
v 1.499969 -1.848687 8.099277
v 0.766631 -4.179191 9.891697
v 0.766631 -1.848687 5.856608
v 0.766631 -1.117127 9.891698
v 0.766631 -1.117127 6.505557
v 0.766631 -1.848687 6.505557
v -0.640063 -1.848687 6.505557
v 1.098391 -1.848687 5.856608
v 1.499969 -1.848687 6.258186
v -0.905248 -4.179191 10.985236
v -0.905248 -4.179191 9.891697
v -0.905248 -1.117127 9.891698
v -0.905248 -1.857135 9.586170
v -0.905248 -1.118599 9.578126
v -0.928929 -1.291660 10.015866
v 0.766631 -2.425602 7.314037
v 0.766631 -4.179191 7.314037
v -0.640063 -1.848687 6.042689
v -0.453981 -1.848687 5.856608
v 1.418971 -4.179191 8.099277
v 1.499969 -4.098194 8.099277
v 0.766631 -4.179191 6.806963
v 0.766631 -4.098194 6.725965
v -0.440739 -4.179191 7.056637
v -0.521737 -4.098194 7.023087
v 1.304008 -4.179191 6.806963
v 1.337558 -4.098194 6.725965
v 1.418971 -4.179191 6.921926
v 1.499969 -4.098194 6.888376
v -0.222602 -4.179191 6.838500
v -0.268484 -4.098194 6.769834
v -0.146466 -4.179191 6.806963
v -0.162576 -4.098194 6.725965
v 1.499969 -1.296438 8.099277
v 1.320658 -1.117127 8.099277
v 0.766631 -1.296438 5.856608
v 0.766631 -1.117127 6.035919
v -0.460752 -1.117127 6.505557
v -0.640063 -1.296438 6.505557
v 1.320658 -1.117127 6.332459
v 1.499969 -1.296438 6.258186
v 1.024118 -1.117127 6.035919
v 1.098391 -1.296438 5.856608
v -0.379709 -1.117127 6.035919
v -0.453981 -1.296438 5.856608
v -0.460752 -1.117127 6.116962
v -0.640063 -1.296438 6.042689
v 1.499969 -2.552390 8.099277
v 1.373181 -2.425602 8.099277
v 1.499969 -2.298815 8.099277
v 0.766631 -2.552390 6.725965
v 0.766631 -2.425602 6.852753
v -0.394949 -2.425602 7.075604
v -0.521737 -2.552390 7.023087
v 1.373181 -2.425602 6.940893
v 1.499969 -2.552390 6.888376
v 1.337558 -2.552390 6.725965
v 1.285041 -2.425602 6.852753
v -0.137356 -2.425602 6.852753
v -0.162576 -2.552390 6.725965
v -0.268484 -2.552390 6.769834
v -0.196664 -2.425602 6.877319
v -0.497414 -4.088119 7.314037
v -0.521737 -4.098194 7.289715
v -0.406341 -4.179191 7.314037
v -0.440739 -4.179191 7.289715
v -0.394949 -2.425602 7.289715
v -0.360551 -2.425602 7.314037
v -0.497414 -2.562465 7.314037
v -0.521737 -2.552390 7.289715
v -1.434811 -1.117127 9.891698
v -1.580846 -1.263162 9.891850
v -1.434811 -1.118599 9.578126
v -1.580846 -1.264627 9.579717
v -0.905248 -1.290545 7.200364
v -0.905248 -1.142927 7.344800
v -1.153394 -1.142927 7.344800
v -1.213884 -1.290545 7.200364
v -1.434811 -1.139862 7.626200
v -1.580846 -1.286548 7.567305
v -1.580846 -1.784993 9.585384
v -1.508700 -1.857135 9.586170
v -1.580846 -1.857135 9.658318
v -0.905248 -1.882268 7.278961
v -0.905248 -1.810912 7.206033
v -1.508700 -1.878731 7.603641
v -1.580846 -1.806915 7.572973
v -1.213884 -1.810912 7.206033
v -1.184000 -1.882268 7.278961
v -0.938559 -4.179191 9.891697
v -1.508700 -1.857135 9.586170
v 0.766631 -1.388950 10.985236
v -0.905248 -1.388950 10.985236
v -0.905248 -4.179191 10.985236
v -1.309023 -1.833445 10.985236
v 1.418971 -4.179191 10.713413
v 1.034555 -4.179191 10.985236
v 1.228146 -3.985601 10.985236
v 1.499969 -4.098194 10.713413
v 1.228146 -1.409030 10.985236
v 1.208066 -1.388950 10.985236
v -1.322218 -1.388950 10.985236
v -1.309023 -1.375755 10.985236
v 0.766631 -1.237864 10.834150
v -0.905248 -1.237864 10.834150
v 1.499969 -1.296438 10.542666
v 1.379232 -1.346448 10.834150
v 1.499969 -1.467185 10.713413
v 1.270647 -1.237864 10.834150
v -1.384800 -1.237864 10.834150
v -1.460109 -1.313173 10.834150
v -1.580846 -1.263162 10.542666
v -1.580846 -1.433909 10.713413
v 0.766631 -1.180698 10.696139
v 0.766631 -1.117127 10.376548
v -0.905248 -1.117127 10.376548
v -0.905248 -1.180698 10.696139
v 1.320658 -1.117127 10.376548
v 1.294326 -1.180698 10.696139
v 1.438122 -1.234590 10.542666
v -1.408479 -1.180698 10.696139
v -1.434811 -1.117127 10.376548
v -1.552274 -1.234591 10.542666
v -0.938559 -4.179191 9.891697
v -0.926121 -4.179191 10.964046
v -1.102541 -4.035321 10.000607
v -1.100415 -4.032843 10.813200
v -1.580846 -1.857135 10.538910
v -1.457453 -1.846381 10.836806
v -1.580846 -1.682632 10.713413
v -1.100415 -4.032843 10.813200
v -1.241755 -3.787750 10.538910
v -1.508700 -1.857135 9.586170
v -1.580846 -1.857135 9.658318
v -1.241755 -3.787750 10.163854
v -1.122456 -3.999906 10.007100
v -0.905248 -1.812178 10.985236
v -0.905248 -1.389000 10.985236
v -0.905248 -2.284886 17.275501
v -0.905248 -2.284871 21.165272
v -0.790131 -4.179191 17.275501
v -0.790131 -4.179191 21.165272
v -0.838197 -4.131125 17.275501
v -0.905248 -3.969245 17.275501
v -0.905248 -4.177398 11.285853
v -0.905248 -4.084391 11.189319
v -0.905248 -3.969246 21.165272
v -0.838197 -4.131125 21.165272
v 0.766631 -3.755567 10.985236
v 0.343007 -4.179191 10.985236
v 0.766631 -4.179191 10.561612
v 1.034505 -4.179191 10.985236
v 0.766631 -3.755567 17.275501
v 0.343007 -4.179191 17.275501
v 0.343007 -4.179191 21.165272
v 0.766631 -3.755567 21.165272
v 0.766631 -1.798310 10.985236
v 0.766631 -1.389000 10.985236
v 0.766631 -2.271019 17.275501
v 0.766631 -2.271005 21.165272
v -0.697989 -1.604616 10.985236
v -0.534719 -1.536888 10.985236
v -0.714586 -1.491575 10.985236
v -0.697989 -2.077335 17.275501
v -0.534719 -2.009611 17.275501
v -0.534719 -2.009611 21.165272
v -0.697989 -2.077331 21.165272
v 0.392138 -1.536888 10.985236
v 0.585813 -1.617228 10.985236
v 0.604302 -1.480965 10.985236
v 0.392138 -2.009611 17.275501
v 0.585813 -2.089947 17.275501
v 0.585813 -2.089942 21.165272
v 0.392138 -2.009611 21.165272
vn -1.0000 -0.0000 -0.0000
vn -0.0000 -1.0000 -0.0000
vn -0.0000 1.0000 -0.0000
vn -0.0000 0.7071 0.7071
vn -0.0000 -0.0000 -1.0000
vn -0.7076 0.7066 -0.0000
vn 1.0000 -0.0000 -0.0000
vn 0.7071 -0.0000 -0.7071
vn -0.0000 -0.0000 1.0000
vn -0.7071 -0.0000 -0.7071
vn 0.7071 -0.7071 -0.0000
vn -0.0000 0.9239 0.3827
vn 0.1133 -0.0000 -0.9936
vn -0.0000 -0.1305 -0.9915
vn -0.0000 1.0000 -0.0047
vn -0.0000 -0.9999 0.0109
vn -0.9849 -0.1730 -0.0000
vn -0.0000 -0.0109 -0.9999
vn -0.7071 -0.0077 -0.7071
vn -0.0000 0.9999 -0.0109
vn -0.5000 0.5000 0.7071
vn -0.3827 -0.0000 -0.9239
vn -0.7071 0.7071 -0.0000
vn 0.5000 -0.7071 -0.5000
vn -0.0000 -0.7071 -0.7071
vn -0.2706 -0.7071 -0.6533
vn -0.5000 -0.7071 -0.5000
vn -0.6533 0.6533 0.3827
vn -0.8693 -0.4943 0.0026
vn 0.5000 0.7071 -0.5000
vn -0.0000 0.7071 -0.7071
vn 0.7071 0.7071 -0.0000
vn -0.5000 0.7071 -0.5000
vn -0.2706 0.7071 -0.6533
vn -0.5000 -0.5000 0.7071
vn -0.7071 -0.0000 0.7071
vn -0.7071 -0.7071 -0.0000
vn -0.7071 0.7071 -0.0033
vn -0.5000 0.7016 -0.5077
vn -0.7071 0.7071 -0.0077
vn -0.0000 0.6994 -0.7148
vn 0.7071 -0.0000 0.7071
vn -0.0026 -1.0000 -0.0000
vn -0.5000 -0.7125 -0.4923
vn -0.7071 -0.7071 0.0077
vn -0.0000 -0.7148 -0.6994
vn 0.5000 -0.5000 0.7071
vn 0.5000 0.5000 0.7071
vn 0.6533 0.6533 0.3827
vn 0.8165 0.4082 0.4082
vn -0.8165 0.4082 0.4082
vn 0.5295 0.8226 0.2073
vn -0.5295 0.8226 0.2073
vn -0.0000 0.9808 0.1951
vn -0.5752 -0.5815 -0.5752
vn -0.6516 -0.7586 0.0060
vn -0.8546 -0.3672 0.3672
vn -0.9192 -0.1575 0.3608
vn -0.7018 -0.1215 0.7019
vn -0.8452 -0.2571 -0.4686
vn -0.6811 -0.2574 -0.6854
vn 0.7076 0.7066 -0.0000
vn -0.7070 -0.7070 0.0134
vn -0.9679 -0.2513 0.0087
vn -0.9239 -0.3827 -0.0000
vn -0.0000 -0.7071 0.7071
vn 0.7066 0.7056 0.0530
vn -0.0000 0.9972 0.0749
vn -0.3822 0.9215 0.0692
vn -0.3831 0.9237 -0.0000
vn -0.7066 0.7056 0.0530
vn 0.3822 0.9215 0.0692
vn 0.3831 0.9237 -0.0000
vt 0.375000 0.125000
vt 0.625000 0.125000
vt 0.625000 0.250000
vt 0.500000 0.250000
vt 0.437500 0.250000
vt 0.375000 0.250000
vt 0.500000 0.500000
vt 0.500000 0.363099
vt 0.347387 0.500000
vt 0.125000 0.500000
vt 0.308196 0.500000
vt 0.875000 0.500000
vt 0.686128 0.500000
vt 0.787221 0.500000
vt 0.589046 1.000000
vt 0.603515 1.000000
vt 0.576630 1.000000
vt 0.544054 1.000000
vt 0.437500 0.456777
vt 0.437500 0.456777
vt 0.437500 0.426730
vt 0.594362 0.250000
vt 0.496098 1.000000
vt 0.496098 1.000000
vt 0.484140 1.000000
vt 0.484141 1.000000
vt 0.594362 0.500000
vt 0.594362 0.363099
vt 0.594362 0.250000
vt 0.875000 0.500000
vt 0.347387 0.726453
vt 0.347387 0.500000
vt 0.377887 0.500000
vt 0.381262 0.726453
vt 0.395041 1.000000
vt 0.487633 1.000000
vt 0.484939 1.000000
vt 0.399407 1.000000
vt 0.606069 1.000000
vt 0.613688 1.000000
vt 0.500000 0.125000
vt 0.562500 0.125000
vt 0.500000 0.125000
vt 0.396072 0.048714
vt 0.500000 0.039877
vt 0.500000 0.118554
vt 0.396072 0.089091
vt 0.506105 0.125000
vt 0.550142 0.125000
vt 0.506105 0.125000
vt 0.432981 0.500000
vt 0.562500 0.125000
vt 0.578614 1.000000
vt 0.603515 1.000000
vt 0.590685 1.000000
vt 0.377887 0.250000
vt 0.432981 0.250000
vt 0.432981 0.444633
vt 0.377887 0.444633
vt 0.432981 0.250000
vt 0.432622 0.250000
vt 0.378246 0.250000
vt 0.375000 0.250000
vt 0.437500 0.250000
vt 0.125000 0.500000
vt 0.125000 0.500000
vt 0.125000 0.625000
vt 0.125000 0.701576
vt 0.125000 0.750000
vt 0.125000 0.750000
vt 0.319633 0.500000
vt 0.375000 0.500000
vt 0.605158 1.000000
vt 0.600332 1.000000
vt 0.125000 0.730335
vt 0.125000 0.701331
vt 0.125000 0.663508
vt 0.125000 0.642307
vt 0.125000 0.640752
vt 0.625000 0.381003
vt 0.625000 0.482096
vt 0.625000 0.337779
vt 0.437500 0.500000
vt 0.451236 0.500000
vt 0.437500 0.250000
vt 0.437500 0.250000
vt 0.437500 0.456777
vt 0.585969 0.111663
vt 0.594983 0.726453
vt 0.599568 0.778072
vt 0.587949 0.842666
vt 0.388271 0.842666
vt 0.125000 0.747578
vt 0.571490 1.000000
vt 0.529477 1.000000
vt 0.505388 1.000000
vt 0.511868 1.000000
vt 0.484940 1.000000
vt 0.399407 1.000000
vt 0.486977 1.000000
vt 0.375000 1.000000
vt 0.379599 1.000000
vt 0.387096 1.000000
vt 0.544039 1.000000
vt 0.125000 0.750000
vt 0.875000 0.680422
vt 0.875000 0.625000
vt 0.875000 0.680422
vt 0.347972 0.750000
vt 0.347387 0.750000
vt 0.607907 0.711662
vt 0.589387 0.849512
vt 0.600406 0.791160
vt 0.609182 0.828177
vt 0.610360 0.750000
vt 0.615410 0.771084
vt 0.616671 0.820105
vt 0.375000 0.908663
vt 0.544039 1.000000
vt 0.395040 1.000000
vt 0.375000 0.908680
vt 0.608853 0.726453
vt 0.599568 0.778072
vt 0.588614 0.027468
vt 0.594519 0.045198
vt 0.568946 0.026762
vt 0.686128 0.697272
vt 0.634887 0.711662
vt 0.606069 1.000000
vt 0.600482 0.046253
vt 0.625000 0.069578
vt 0.594519 0.045198
vt 0.609182 0.828177
vt 0.625000 0.811128
vt 0.625000 1.000000
vt 0.616671 0.820105
vt 0.500000 0.039877
vt 0.528428 0.025307
vt 0.499430 0.024317
vt 0.500000 0.024286
vt 0.382878 0.019237
vt 0.499430 0.013262
vt 0.375000 0.000000
vt 0.498744 0.000000
vt 0.375000 0.002422
vt 0.384651 0.109251
vt 0.382745 0.110498
vt 0.495371 1.000000
vt 0.495372 1.000000
vt 0.496796 1.000000
vt 0.513494 1.000000
vt 0.495372 1.000000
vt 0.500000 1.000000
vt 0.377769 1.000000
vt 0.375000 1.000000
vt 0.347387 0.726453
vt 0.216337 0.750000
vt 0.216320 0.750000
vt 0.496199 1.000000
vt 0.516653 1.000000
vt 0.502302 1.000000
vt 0.496098 1.000000
vt 0.516653 1.000000
s 0
f 6/1/1 8/2/1 2/3/1 3/4/1 4/5/1 1/6/1
f 5/7/2 3/4/2 10/4/2 7/4/2 12/8/2 13/7/2
f 24/9/2 1/10/2 21/10/2 26/10/2 30/11/2 32/9/2
f 2/12/3 39/13/3 44/13/3 46/14/3 41/12/3 9/12/3
f 109/15/4 114/16/4 106/17/4 97/18/4
f 4/5/3 53/19/3 59/20/3 62/21/3 56/5/3 20/5/3
f 40/22/5 7/4/5 23/4/5 49/22/5
f 171/23/6 168/24/6 143/25/6 144/26/6
f 38/27/7 5/7/7 13/7/7 45/27/7
f 45/27/8 13/7/8 12/8/8 47/28/8
f 3/4/1 2/3/1 9/3/1 10/4/1
f 11/4/1 43/29/1 51/22/1 22/4/1
f 7/4/2 10/4/2 11/4/2 22/4/2 23/4/2
f 10/4/9 9/3/9 42/3/9 43/22/9 11/4/9
f 49/22/10 23/4/10 22/4/10 51/22/10
f 9/12/3 41/12/3 48/12/3 50/30/3 42/12/3
f 100/31/11 24/32/11 25/33/11 103/34/11
f 153/35/7 161/36/7 163/37/7 157/38/7
f 121/39/12 125/40/12 114/16/12 109/15/12
f 8/2/13 6/1/13 15/1/13 17/41/13 18/42/13 16/2/13
f 17/41/14 15/1/14 94/1/14 95/41/14 86/41/14
f 16/2/15 18/42/15 77/42/15 75/2/15
f 17/41/16 86/41/16 90/43/16 93/41/16 88/41/16
f 136/44/17 132/45/17 87/46/17 138/46/17 139/47/17
f 18/42/7 17/41/7 88/41/7 89/48/7 79/49/7 80/42/7
f 85/50/1 78/49/1 84/49/1 91/50/1
f 79/49/18 89/50/18 92/50/18 82/49/18
f 52/51/7 25/33/7 33/33/7 60/51/7
f 82/49/19 92/50/19 91/50/19 84/49/19
f 77/42/20 18/42/20 80/42/20 81/52/20 83/42/20
f 107/53/21 106/17/21 114/54/21 115/55/21
f 27/56/5 55/57/5 61/58/5 31/59/5
f 1/6/1 4/5/1 20/5/1 21/6/1
f 55/57/5 27/56/5 37/56/5 64/60/5
f 60/51/8 33/33/8 31/59/8 61/58/8
f 21/6/9 20/5/9 72/5/9 73/61/9 67/62/9 69/63/9
f 12/8/5 7/4/5 40/22/5 47/28/5
f 65/57/10 35/56/10 29/56/10 58/57/10
f 64/60/22 37/56/22 35/56/22 65/57/22
f 71/64/23 57/5/23 58/57/23 74/57/23
f 26/10/2 21/10/2 69/10/2 70/10/2 28/65/2 34/65/2 36/66/2
f 6/67/2 155/68/2 154/69/2 14/70/2 15/67/2
f 68/56/1 74/57/1 58/57/1 29/56/1
f 32/9/24 30/11/24 31/71/24 33/72/24
f 30/11/25 26/10/25 27/10/25 31/71/25
f 33/33/11 25/33/11 24/9/11 32/9/11
f 36/66/26 34/65/26 35/10/26 37/10/26
f 26/10/25 36/66/25 37/10/25 27/10/25
f 34/65/27 28/65/27 29/10/27 35/10/27
f 125/40/28 127/73/28 116/74/28 115/55/28 114/54/28
f 135/75/29 136/76/29 139/77/29 140/78/29 130/79/29 131/75/29
f 46/80/30 44/81/30 45/27/30 47/28/30
f 41/3/31 46/82/31 47/28/31 40/22/31
f 44/13/32 39/13/32 38/27/32 45/27/32
f 50/3/33 48/3/33 49/22/33 51/22/33
f 48/3/31 41/3/31 40/22/31 49/22/31
f 42/3/23 50/3/23 51/22/23 43/29/23
f 52/51/5 53/83/5 54/84/5
f 20/5/3 56/5/3 63/85/3 66/5/3 57/5/3 71/5/3 72/86/3
f 62/21/30 59/20/30 60/51/30 61/58/30
f 56/5/31 62/21/31 61/58/31 55/57/31
f 59/20/32 53/19/32 52/51/32 60/51/32
f 66/5/34 63/85/34 64/60/34 65/57/34
f 63/85/31 56/5/31 55/57/31 64/60/31
f 57/5/33 66/5/33 65/57/33 58/57/33
f 4/5/5 3/4/5 5/7/5 54/84/5 53/87/5
f 69/10/35 67/10/35 68/10/35 70/10/35
f 73/61/21 72/5/21 71/64/21 74/57/21
f 74/57/36 68/56/36 67/62/36 73/61/36
f 28/65/37 70/10/37 68/10/37 29/10/37
f 75/2/38 77/42/38 78/49/38 76/88/38
f 83/42/39 81/52/39 82/49/39 84/49/39
f 77/42/40 83/42/40 84/49/40 78/49/40
f 81/52/41 80/42/41 79/49/41 82/49/41
f 103/34/42 112/89/42 111/90/42 104/91/42 102/92/42
f 14/70/43 154/70/43 158/70/43 145/70/43 149/70/43 150/70/43
f 93/41/44 90/43/44 91/50/44 92/50/44
f 90/43/45 86/41/45 85/50/45 91/50/45
f 88/41/46 93/41/46 92/50/46 89/50/46
f 15/67/2 14/70/2 98/70/2 129/93/2 128/67/2 94/67/2
f 115/55/36 117/94/36 134/95/36 133/96/36 99/97/36 107/53/36
f 157/38/7 163/37/7 164/98/7 160/99/7
f 141/100/1 14/101/1 150/102/1 148/103/1 143/25/1
f 14/101/9 141/100/9 142/104/9 97/18/9 106/17/9 107/53/9 99/97/9 98/101/9
f 145/105/2 158/70/2 159/70/2 146/70/2
f 119/106/3 8/107/3 16/107/3 120/108/3
f 102/109/47 101/110/47 100/31/47 103/34/47
f 25/33/7 52/51/7 54/84/7 5/7/7 38/27/7 110/111/7 112/89/7 103/34/7
f 97/18/4 96/18/4 108/15/4 109/15/4
f 105/112/48 104/91/48 111/113/48 113/114/48
f 110/115/49 124/116/49 123/117/49 113/114/49 111/113/49
f 101/118/9 102/92/9 104/91/9 105/112/9 96/18/9 162/119/9 161/36/9 153/120/9 156/121/9
f 110/122/50 111/123/50 112/89/50
f 115/124/51 116/125/51 117/126/51
f 39/13/3 2/12/3 8/107/3 119/108/3 122/127/3
f 39/13/32 122/127/32 124/128/32 110/111/32 38/27/32
f 118/129/12 121/129/12 109/15/12 108/15/12
f 127/130/23 126/131/23 75/2/23 76/88/23 116/132/23
f 120/106/3 16/107/3 75/107/3 126/108/3
f 96/18/4 105/112/4 113/133/4 108/15/4
f 122/134/52 123/117/52 124/116/52
f 125/40/53 126/135/53 127/73/53
f 119/135/54 120/135/54 121/129/54 118/129/54
f 122/134/54 119/135/54 118/39/54 123/136/54
f 120/135/54 126/135/54 125/40/54 121/39/54
f 123/136/12 118/39/12 108/15/12 113/133/12
f 85/50/55 86/41/55 95/41/55 137/41/55 138/46/55 87/46/55
f 132/137/1 134/138/1 117/126/1 116/125/1 76/88/1 78/49/1 85/50/1 87/46/1
f 131/75/56 130/79/56 128/67/56 129/93/56
f 132/45/57 133/139/57 134/140/57
f 135/141/58 133/142/58 132/45/58 136/44/58
f 98/143/59 99/144/59 133/142/59 135/141/59 131/141/59 129/145/59
f 139/47/60 138/46/60 137/41/60 140/146/60
f 95/41/61 94/1/61 128/1/61 130/147/61 140/146/61 137/41/61
f 164/98/62 163/37/62 176/148/62 177/149/62
f 141/100/9 165/150/9 167/151/9 142/119/9
f 159/101/9 160/38/9 164/98/9 177/152/9 178/153/9 170/153/9 171/23/9 144/26/9 151/103/9 152/154/9 146/155/9
f 143/25/1 148/103/1 151/103/1 144/26/1
f 145/70/63 147/70/63 149/70/63
f 148/70/64 150/105/64 149/70/64 147/70/64
f 151/70/65 148/70/65 147/70/65 152/70/65
f 145/105/37 146/70/37 152/70/37 147/70/37
f 153/70/66 154/69/66 155/68/66 156/70/66
f 158/70/11 154/70/11 153/70/11 157/70/11
f 157/70/11 160/70/11 159/70/11 158/70/11
f 1/10/2 24/32/2 100/156/2 101/157/2 156/158/2 155/68/2 6/67/2
f 173/159/67 176/148/67 163/37/67 161/36/67
f 172/153/68 166/153/68 169/153/68 175/153/68
f 175/153/3 169/153/3 170/153/3 178/153/3
f 174/160/9 173/153/9 161/153/9 162/119/9
f 165/150/9 166/161/9 167/151/9
f 169/153/69 166/153/69 165/150/69 168/162/69
f 170/153/70 169/153/70 168/24/70 171/23/70
f 168/162/71 165/150/71 141/100/71 143/25/71
f 172/153/9 173/153/9 174/153/9
f 172/153/72 175/153/72 176/148/72 173/159/72
f 175/153/73 178/153/73 177/149/73 176/148/73
f 172/153/9 174/163/9 162/104/9 96/18/9 97/18/9 142/119/9 167/151/9 166/153/9
